<?xml version="1.0" standalone="no"?>
<!DOCTYPE svg PUBLIC "-//W3C//DTD SVG 20010904//EN"
 "http://www.w3.org/TR/2001/REC-SVG-20010904/DTD/svg10.dtd">
<svg version="1.0" xmlns="http://www.w3.org/2000/svg"
 width="500.000000pt" height="500.000000pt" viewBox="0 0 500.000000 500.000000"
 preserveAspectRatio="xMidYMid meet">

<g transform="translate(0.000000,500.000000) scale(0.100000,-0.100000)"
fill="#000000" stroke="none">
<path d="M2330 4730 c-293 -21 -532 -87 -815 -225 -521 -253 -906 -681 -1119
-1242 -83 -219 -122 -415 -133 -653 -22 -542 147 -1067 482 -1495 35 -44 79
-96 99 -114 l36 -35 0 -111 0 -111 32 -31 c122 -114 457 -251 748 -303 36 -7
108 -25 160 -42 244 -76 459 -103 749 -95 213 6 324 21 501 68 586 155 1105
565 1393 1097 270 499 339 1090 191 1643 -77 290 -221 575 -411 816 -69 87
-257 277 -346 348 -315 253 -730 429 -1117 474 -133 15 -324 20 -450 11z m447
-156 c-3 -3 -12 -4 -19 -1 -8 3 -5 6 6 6 11 1 17 -2 13 -5z m-219 -15 c348
-39 636 -255 845 -634 60 -110 123 -251 173 -390 25 -71 36 -91 53 -93 17 -3
21 2 21 22 0 19 5 26 20 26 19 0 20 8 22 365 l3 364 75 -56 c98 -74 310 -287
387 -388 288 -382 433 -816 433 -1294 0 -471 -176 -950 -481 -1316 -118 -141
-257 -267 -439 -399 -8 -6 -3 5 13 24 186 235 259 403 287 659 20 181 -13 401
-86 579 -127 310 -337 526 -700 720 -143 76 -293 135 -572 228 -337 111 -495
194 -654 343 -178 166 -244 314 -236 526 5 127 29 209 99 331 108 188 305 334
513 379 77 17 105 17 224 4z m-1184 -321 c-177 -181 -292 -403 -324 -627 -16
-104 -8 -361 14 -481 44 -241 148 -430 351 -636 110 -111 223 -191 395 -278
132 -67 196 -91 444 -166 308 -93 464 -161 646 -280 109 -72 240 -200 293
-287 146 -240 116 -544 -75 -749 -160 -171 -370 -281 -573 -298 -92 -8 -386 9
-500 29 -180 32 -369 109 -512 207 -87 60 -213 189 -271 278 -59 91 -164 298
-238 470 -48 113 -66 145 -80 145 -13 0 -20 -8 -22 -27 -2 -16 -9 -28 -18 -28
-12 0 -14 -30 -14 -172 l-1 -173 -35 40 c-62 70 -173 246 -234 370 -145 297
-211 583 -213 930 -1 211 14 332 63 521 113 437 385 854 732 1120 70 54 229
164 237 164 3 0 -26 -33 -65 -72z"/>
<path d="M2595 4166 c-171 -42 -296 -177 -327 -355 -32 -185 68 -380 236 -460
163 -78 381 -52 477 57 36 41 84 139 94 194 6 33 5 36 -23 41 -16 3 -41 9 -55
12 -24 6 -27 3 -37 -37 -34 -124 -115 -198 -219 -198 -78 0 -143 45 -186 130
-46 91 -56 194 -29 311 31 135 103 203 214 201 62 -1 103 -16 134 -51 19 -21
19 -23 3 -50 -34 -58 -11 -127 51 -157 75 -36 152 21 152 112 0 181 -246 308
-485 250z"/>
</g>
</svg>
